<svg width="512" height="512" viewBox="0 0 128 128" fill="none" xmlns="http://www.w3.org/2000/svg">
  <defs>
    <linearGradient id="g0" x1="16" y1="16" x2="112" y2="112" gradientUnits="userSpaceOnUse">
      <stop stop-color="#F4D79A"/>
      <stop offset="1" stop-color="#4AB8A4"/>
    </linearGradient>
    <linearGradient id="g1" x1="30" y1="24" x2="92" y2="102" gradientUnits="userSpaceOnUse">
      <stop stop-color="#0B1220"/>
      <stop offset="1" stop-color="#111C2E"/>
    </linearGradient>
  </defs>

  <rect x="8" y="8" width="112" height="112" rx="32" fill="url(#g0)"/>
  <rect x="12" y="12" width="104" height="104" rx="28" fill="url(#g1)"/>

  <path d="M38 28V100H58C78 100 92 86 92 64C92 42 78 28 58 28H38Z" fill="#F2E7CE"/>
  <path d="M48 38V90H58C72 90 82 79 82 64C82 49 72 38 58 38H48Z" fill="#111C2E"/>

  <path d="M20 64C20 54 24 45 31 38" stroke="#4AB8A4" stroke-width="4" stroke-linecap="round" opacity="0.8"/>
  <path d="M108 64C108 74 104 83 97 90" stroke="#F4D79A" stroke-width="4" stroke-linecap="round" opacity="0.85"/>

  <circle cx="98" cy="28" r="3" fill="#F4D79A"/>
  <circle cx="30" cy="100" r="2.5" fill="#4AB8A4"/>
</svg>
